<svg width="48" height="48" viewBox="0 0 48 48" fill="none" xmlns="http://www.w3.org/2000/svg">
<path d="M22.0588 36.315C21.6163 33.6525 18.6163 31.8525 17.2738 30.765C15.1588 29.0475 13.1488 26.4675 12.0763 26.13C11.4238 25.9275 10.2238 25.95 10.6363 26.8875C11.7238 29.3625 17.0113 33.93 14.4688 32.6025C13.2163 31.95 12.4738 31.7625 7.27628 24.69C3.97628 20.205 3.81128 21.525 3.06878 21.5325C2.62628 21.54 4.42628 24.8475 5.40128 26.5725C6.91628 29.25 7.82378 32.055 8.46878 33.645C9.14378 35.28 10.7263 36.015 15.5863 39.615C17.6788 41.1675 17.3488 41.925 17.3488 43.1025C19.5913 43.1025 20.4613 43.1025 22.7113 43.1025C22.7038 43.095 22.5013 38.985 22.0588 36.315Z" fill="#4F46E5"/>
<path d="M26.0788 36.315C26.5213 33.6525 29.5213 31.8525 30.8638 30.765C32.9788 29.0475 34.9888 26.4675 36.0613 26.13C36.7138 25.9275 37.9138 25.95 37.5013 26.8875C36.4138 29.3625 31.1263 33.93 33.6688 32.6025C34.9213 31.95 35.6638 31.7625 40.8613 24.69C44.1613 20.205 44.3263 21.525 45.0688 21.5325C45.5113 21.54 43.7113 24.8475 42.7363 26.5725C41.2213 29.25 40.3138 32.055 39.6688 33.645C38.9938 35.28 37.4113 36.015 32.5513 39.615C30.4588 41.1675 30.7888 41.925 30.7888 43.1025C28.5463 43.1025 27.6763 43.1025 25.4263 43.1025C25.4338 43.095 25.6363 38.985 26.0788 36.315Z" fill="#4F46E5"/>
<path d="M20.0487 12.72C21.7137 12.72 23.0637 10.8825 23.0637 8.61C23.0637 6.3375 21.7137 4.5 20.0487 4.5C18.3837 4.5 17.0337 6.3375 17.0337 8.61C17.0412 10.8825 18.3912 12.72 20.0487 12.72Z" fill="#4F46E5"/>
<path d="M28.0887 12.72C29.7537 12.72 31.1037 10.8825 31.1037 8.61C31.1037 6.3375 29.7537 4.5 28.0887 4.5C26.4237 4.5 25.0737 6.3375 25.0737 8.61C25.0737 10.8825 26.4237 12.72 28.0887 12.72Z" fill="#4F46E5"/>
<path d="M24.2112 13.305C24.1887 13.305 24.1287 13.305 24.0687 13.305C24.0087 13.305 23.9412 13.305 23.9262 13.305C21.7287 13.305 19.0362 15.0975 17.6412 18.24C15.9312 22.095 16.6587 26.325 19.2612 27.69C20.6937 28.44 22.3962 28.1625 23.9262 27.12C24.0012 27.075 24.0312 27.0525 24.0687 27.0525C24.1062 27.0525 24.1437 27.075 24.2112 27.12C25.7412 28.1625 27.4437 28.44 28.8762 27.69C31.4787 26.325 32.2062 22.095 30.4962 18.24C29.1012 15.0975 26.4087 13.305 24.2112 13.305Z" fill="#4F46E5"/>
<path d="M14.0262 10.95C12.3612 10.95 11.0112 12.7875 11.0112 15.06C11.0112 17.3325 12.3612 19.17 14.0262 19.17C15.6912 19.17 17.0412 17.3325 17.0412 15.06C17.0412 12.795 15.6912 10.95 14.0262 10.95Z" fill="#4F46E5"/>
<path d="M34.1112 10.95C32.4462 10.95 31.0962 12.7875 31.0962 15.06C31.0962 17.3325 32.4462 19.17 34.1112 19.17C35.7762 19.17 37.1262 17.3325 37.1262 15.06C37.1262 12.795 35.7762 10.95 34.1112 10.95Z" fill="#4F46E5"/>
</svg>
